<svg width="20" height="20" viewBox="0 0 20 20" fill="none" xmlns="http://www.w3.org/2000/svg">
<path d="M20 9.99C20 4.475 15.52 0 10 0C4.48 0 0 4.475 0 9.99C0 13.0275 1.38 15.765 3.54 17.6025C3.56 17.6225 3.58 17.6225 3.58 17.6425C3.76 17.7825 3.94 17.9225 4.14 18.0625C4.24 18.1225 4.32 18.2013 4.42 18.2812C6.07325 19.4003 8.02362 19.9989 10.02 20C12.0164 19.9989 13.9667 19.4003 15.62 18.2812C15.72 18.2213 15.8 18.1425 15.9 18.0812C16.08 17.9425 16.28 17.8025 16.46 17.6625C16.48 17.6425 16.5 17.6425 16.5 17.6225C18.62 15.7637 20 13.0275 20 9.99ZM10 18.7412C8.12 18.7412 6.4 18.1413 4.98 17.1425C5 16.9825 5.04 16.8237 5.08 16.6637C5.19957 16.2303 5.37433 15.8139 5.6 15.425C5.82 15.045 6.08 14.705 6.4 14.405C6.7 14.105 7.06 13.8263 7.42 13.6063C7.8 13.3863 8.2 13.2262 8.64 13.1062C9.08357 12.9874 9.5408 12.9274 10 12.9275C11.3634 12.9172 12.6769 13.4402 13.66 14.385C14.12 14.845 14.48 15.3846 14.74 16.0037C14.88 16.3638 14.98 16.7433 15.04 17.1425C13.564 18.1802 11.8043 18.7384 10 18.7412ZM6.94 9.49125C6.76414 9.08766 6.67554 8.65147 6.68 8.21125C6.68 7.7725 6.76 7.3325 6.94 6.9325C7.12 6.5325 7.36 6.17375 7.66 5.87375C7.96 5.57375 8.32 5.335 8.72 5.155C9.12 4.975 9.56 4.895 10 4.895C10.46 4.895 10.88 4.975 11.28 5.155C11.68 5.335 12.04 5.575 12.34 5.87375C12.64 6.17375 12.88 6.53375 13.06 6.9325C13.24 7.3325 13.32 7.7725 13.32 8.21125C13.32 8.67125 13.24 9.09125 13.06 9.49C12.8873 9.88463 12.6432 10.244 12.34 10.55C12.0339 10.8527 11.6745 11.0964 11.28 11.2688C10.4534 11.6077 9.5266 11.6077 8.7 11.2688C8.30547 11.0964 7.94612 10.8527 7.64 10.55C7.33656 10.2483 7.0983 9.88878 6.94 9.49125ZM16.22 16.1238C16.22 16.0837 16.2 16.0638 16.2 16.0238C16.0037 15.3979 15.7137 14.8053 15.34 14.2663C14.966 13.7232 14.5067 13.2441 13.98 12.8475C13.5776 12.5447 13.1413 12.2896 12.68 12.0875C12.8889 11.9478 13.0832 11.7874 13.26 11.6087C13.5582 11.3144 13.82 10.9854 14.04 10.6287C14.4845 9.90167 14.7133 9.06332 14.7 8.21125C14.7065 7.58061 14.584 6.9553 14.34 6.37375C14.0994 5.81331 13.7531 5.30447 13.32 4.875C12.8865 4.45131 12.3778 4.11218 11.82 3.875C11.2376 3.63107 10.6114 3.50898 9.98 3.51625C9.34852 3.50937 8.72232 3.63189 8.14 3.87625C7.57605 4.11054 7.0657 4.45716 6.64 4.895C6.2141 5.32621 5.87466 5.83494 5.64 6.39375C5.39597 6.9753 5.27346 7.60061 5.28 8.23125C5.28 8.67125 5.34 9.09083 5.46 9.49C5.58 9.91 5.74 10.29 5.96 10.6488C6.16 11.0087 6.44 11.3288 6.74 11.6288C6.92 11.8088 7.12 11.9683 7.34 12.1075C6.87662 12.3138 6.44008 12.5757 6.04 12.8875C5.52 13.2875 5.06 13.7662 4.68 14.2863C4.30284 14.8233 4.01262 15.4164 3.82 16.0438C3.8 16.0837 3.8 16.1238 3.8 16.1437C2.22 14.545 1.24 12.3875 1.24 9.99C1.24 5.175 5.18 1.23875 10 1.23875C14.82 1.23875 18.76 5.175 18.76 9.99C18.7574 12.2899 17.8441 14.4953 16.22 16.1238Z" fill="black"/>
</svg>
