<svg width="20" height="22" viewBox="0 0 20 22" fill="none" xmlns="http://www.w3.org/2000/svg">
<path d="M10 11.75C12.1378 11.75 14.2743 12.3308 15.8975 13.3066C17.498 14.269 18.752 15.7211 18.75 17.5039V18.75C18.75 19.2141 18.5655 19.6591 18.2373 19.9873C17.9091 20.3155 17.4641 20.5 17 20.5H3C2.59377 20.5 2.20207 20.3588 1.89062 20.1035L1.7627 19.9873C1.43451 19.6591 1.25 19.2141 1.25 18.75V17.5039C1.25004 15.7215 2.50299 14.2693 4.10352 13.3066C5.7262 12.3307 7.86199 11.75 10 11.75ZM10 1.5C11.1548 1.5 12.2626 1.95886 13.0791 2.77539L13.2275 2.93164C13.9507 3.73023 14.3534 4.77107 14.3535 5.85352C14.3535 6.42529 14.2413 6.99226 14.0225 7.52051C13.8037 8.04854 13.4832 8.52844 13.0791 8.93262C12.6748 9.33692 12.1943 9.65814 11.666 9.87695C11.1378 10.0957 10.5717 10.208 10 10.208C9.42833 10.208 8.86215 10.0957 8.33398 9.87695C7.80573 9.65814 7.3252 9.33692 6.9209 8.93262C6.51678 8.52844 6.1963 8.04854 5.97754 7.52051C5.75873 6.99226 5.64648 6.42529 5.64648 5.85352C5.64661 4.69905 6.10463 3.59179 6.9209 2.77539L7.07812 2.62598C7.87677 1.90302 8.91761 1.5 10 1.5Z" stroke="black" stroke-width="1.5" stroke-linecap="round" stroke-linejoin="round"/>
</svg>
