<svg width="24" height="24" viewBox="0 0 24 24" fill="none" xmlns="http://www.w3.org/2000/svg">
<path d="M22 9.00003H17.21L12.83 2.44003C12.7382 2.30382 12.6141 2.19241 12.4688 2.11571C12.3236 2.03901 12.1616 1.99939 11.9973 2.00038C11.833 2.00137 11.6716 2.04294 11.5272 2.12139C11.3829 2.19983 11.2602 2.31273 11.17 2.45003L6.79 9.00003H2C1.45 9.00003 1 9.45003 1 10C1 10.09 1 10.18 1.04 10.27L3.58 19.54C3.81 20.38 4.58 21 5.5 21H18.5C19.42 21 20.19 20.38 20.43 19.54L22.97 10.27L23 10C23 9.45003 22.55 9.00003 22 9.00003ZM12 4.80003L14.8 9.00003H9.2L12 4.80003ZM18.5 19H5.5L3.31 11H20.7L18.5 19ZM12 13C10.9 13 10 13.9 10 15C10 16.1 10.9 17 12 17C13.1 17 14 16.1 14 15C14 13.9 13.1 13 12 13Z" fill="black"/>
</svg>
