<svg width="111" height="99" viewBox="0 0 111 99" fill="none" xmlns="http://www.w3.org/2000/svg">
<mask id="path-1-inside-1_774_786" fill="white">
<path d="M70.7847 38.5C76.146 38.5 80.4972 42.812 80.4972 48.125V74.2445C80.4972 80.8101 77.8653 87.1067 73.1806 91.7493C68.4958 96.3918 62.1419 99 55.5167 99C48.8914 99 42.5375 96.3918 37.8527 91.7493C33.168 87.1067 30.5361 80.8101 30.5361 74.2445V48.125C30.5361 42.812 34.8818 38.5 40.2486 38.5H70.7847ZM70.7847 46.75H40.2486C39.8806 46.75 39.5277 46.8949 39.2675 47.1527C39.0073 47.4106 38.8611 47.7603 38.8611 48.125V74.2445C38.8611 78.622 40.6159 82.8203 43.7394 85.9156C46.8629 89.011 51.0993 90.75 55.5167 90.75C59.934 90.75 64.1704 89.011 67.2939 85.9156C70.4174 82.8203 72.1722 78.622 72.1722 74.2445V48.125C72.1722 47.7603 72.026 47.4106 71.7658 47.1527C71.5056 46.8949 71.1527 46.75 70.7847 46.75ZM9.7125 38.5H28.4771C26.5196 40.8438 25.3239 43.7199 25.0472 46.75H9.7125C9.34451 46.75 8.9916 46.8949 8.73139 47.1527C8.47118 47.4106 8.325 47.7603 8.325 48.125V65.9945C8.32358 68.0732 8.79778 70.1252 9.71192 71.9961C10.6261 73.867 11.9564 75.5082 13.6028 76.7962C15.2492 78.0842 17.1689 78.9855 19.2174 79.4324C21.266 79.8792 23.3901 79.8599 25.4301 79.376C25.9018 82.148 26.7621 84.7935 27.9443 87.252C26.1091 87.747 24.1943 87.9963 22.2 88C19.2842 88 16.3969 87.4308 13.7031 86.3248C11.0094 85.2189 8.5618 83.5979 6.50027 81.5544C4.43874 79.5109 2.80361 77.085 1.68828 74.4152C0.572954 71.7454 -0.000728259 68.884 6.93813e-07 65.9945V48.125C6.93813e-07 42.812 4.3512 38.5 9.7125 38.5ZM82.5563 38.5H101.288C106.649 38.5 111 42.812 111 48.125V66C111.001 69.3724 110.219 72.6998 108.716 75.7252C107.212 78.7506 105.027 81.3929 102.328 83.448C99.6303 85.5031 96.4915 86.916 93.1545 87.5775C89.8176 88.239 86.3718 88.1314 83.0835 87.263C84.2712 84.799 85.1314 82.1535 85.6087 79.3815C86.6336 79.6235 87.6974 79.7463 88.8 79.75C92.4799 79.75 96.009 78.3013 98.6111 75.7227C101.213 73.1441 102.675 69.6467 102.675 66V48.125C102.675 47.7603 102.529 47.4106 102.269 47.1527C102.008 46.8949 101.655 46.75 101.288 46.75H85.9862C85.7094 43.7199 84.5137 40.8438 82.5563 38.5ZM55.5 0C59.9159 0 64.1509 1.73839 67.2733 4.83274C70.3958 7.92709 72.15 12.1239 72.15 16.5C72.15 20.8761 70.3958 25.0729 67.2733 28.1673C64.1509 31.2616 59.9159 33 55.5 33C51.0841 33 46.8492 31.2616 43.7267 28.1673C40.6042 25.0729 38.85 20.8761 38.85 16.5C38.85 12.1239 40.6042 7.92709 43.7267 4.83274C46.8492 1.73839 51.0841 0 55.5 0ZM91.575 5.5C95.2549 5.5 98.784 6.94866 101.386 9.52728C103.988 12.1059 105.45 15.6033 105.45 19.25C105.45 22.8967 103.988 26.3941 101.386 28.9727C98.784 31.5513 95.2549 33 91.575 33C87.8951 33 84.366 31.5513 81.7639 28.9727C79.1618 26.3941 77.7 22.8967 77.7 19.25C77.7 15.6033 79.1618 12.1059 81.7639 9.52728C84.366 6.94866 87.8951 5.5 91.575 5.5ZM19.425 5.5C23.1049 5.5 26.634 6.94866 29.2361 9.52728C31.8382 12.1059 33.3 15.6033 33.3 19.25C33.3 22.8967 31.8382 26.3941 29.2361 28.9727C26.634 31.5513 23.1049 33 19.425 33C15.7451 33 12.216 31.5513 9.61389 28.9727C7.01183 26.3941 5.55 22.8967 5.55 19.25C5.55 15.6033 7.01183 12.1059 9.61389 9.52728C12.216 6.94866 15.7451 5.5 19.425 5.5ZM55.5 8.25C53.2921 8.25 51.1746 9.11919 49.6133 10.6664C48.0521 12.2135 47.175 14.312 47.175 16.5C47.175 18.688 48.0521 20.7865 49.6133 22.3336C51.1746 23.8808 53.2921 24.75 55.5 24.75C57.7079 24.75 59.8254 23.8808 61.3867 22.3336C62.9479 20.7865 63.825 18.688 63.825 16.5C63.825 14.312 62.9479 12.2135 61.3867 10.6664C59.8254 9.11919 57.7079 8.25 55.5 8.25ZM91.575 13.75C90.1031 13.75 88.6914 14.3295 87.6506 15.3609C86.6097 16.3924 86.025 17.7913 86.025 19.25C86.025 20.7087 86.6097 22.1076 87.6506 23.1391C88.6914 24.1705 90.1031 24.75 91.575 24.75C93.047 24.75 94.4586 24.1705 95.4995 23.1391C96.5403 22.1076 97.125 20.7087 97.125 19.25C97.125 17.7913 96.5403 16.3924 95.4995 15.3609C94.4586 14.3295 93.047 13.75 91.575 13.75ZM19.425 13.75C17.9531 13.75 16.5414 14.3295 15.5006 15.3609C14.4597 16.3924 13.875 17.7913 13.875 19.25C13.875 20.7087 14.4597 22.1076 15.5006 23.1391C16.5414 24.1705 17.9531 24.75 19.425 24.75C20.897 24.75 22.3086 24.1705 23.3494 23.1391C24.3903 22.1076 24.975 20.7087 24.975 19.25C24.975 17.7913 24.3903 16.3924 23.3494 15.3609C22.3086 14.3295 20.897 13.75 19.425 13.75Z"/>
</mask>
<path d="M70.7847 38.5C76.146 38.5 80.4972 42.812 80.4972 48.125V74.2445C80.4972 80.8101 77.8653 87.1067 73.1806 91.7493C68.4958 96.3918 62.1419 99 55.5167 99C48.8914 99 42.5375 96.3918 37.8527 91.7493C33.168 87.1067 30.5361 80.8101 30.5361 74.2445V48.125C30.5361 42.812 34.8818 38.5 40.2486 38.5H70.7847ZM70.7847 46.75H40.2486C39.8806 46.75 39.5277 46.8949 39.2675 47.1527C39.0073 47.4106 38.8611 47.7603 38.8611 48.125V74.2445C38.8611 78.622 40.6159 82.8203 43.7394 85.9156C46.8629 89.011 51.0993 90.75 55.5167 90.75C59.934 90.75 64.1704 89.011 67.2939 85.9156C70.4174 82.8203 72.1722 78.622 72.1722 74.2445V48.125C72.1722 47.7603 72.026 47.4106 71.7658 47.1527C71.5056 46.8949 71.1527 46.75 70.7847 46.75ZM9.7125 38.5H28.4771C26.5196 40.8438 25.3239 43.7199 25.0472 46.75H9.7125C9.34451 46.75 8.9916 46.8949 8.73139 47.1527C8.47118 47.4106 8.325 47.7603 8.325 48.125V65.9945C8.32358 68.0732 8.79778 70.1252 9.71192 71.9961C10.6261 73.867 11.9564 75.5082 13.6028 76.7962C15.2492 78.0842 17.1689 78.9855 19.2174 79.4324C21.266 79.8792 23.3901 79.8599 25.4301 79.376C25.9018 82.148 26.7621 84.7935 27.9443 87.252C26.1091 87.747 24.1943 87.9963 22.2 88C19.2842 88 16.3969 87.4308 13.7031 86.3248C11.0094 85.2189 8.5618 83.5979 6.50027 81.5544C4.43874 79.5109 2.80361 77.085 1.68828 74.4152C0.572954 71.7454 -0.000728259 68.884 6.93813e-07 65.9945V48.125C6.93813e-07 42.812 4.3512 38.5 9.7125 38.5ZM82.5563 38.5H101.288C106.649 38.5 111 42.812 111 48.125V66C111.001 69.3724 110.219 72.6998 108.716 75.7252C107.212 78.7506 105.027 81.3929 102.328 83.448C99.6303 85.5031 96.4915 86.916 93.1545 87.5775C89.8176 88.239 86.3718 88.1314 83.0835 87.263C84.2712 84.799 85.1314 82.1535 85.6087 79.3815C86.6336 79.6235 87.6974 79.7463 88.8 79.75C92.4799 79.75 96.009 78.3013 98.6111 75.7227C101.213 73.1441 102.675 69.6467 102.675 66V48.125C102.675 47.7603 102.529 47.4106 102.269 47.1527C102.008 46.8949 101.655 46.75 101.288 46.75H85.9862C85.7094 43.7199 84.5137 40.8438 82.5563 38.5ZM55.5 0C59.9159 0 64.1509 1.73839 67.2733 4.83274C70.3958 7.92709 72.15 12.1239 72.15 16.5C72.15 20.8761 70.3958 25.0729 67.2733 28.1673C64.1509 31.2616 59.9159 33 55.5 33C51.0841 33 46.8492 31.2616 43.7267 28.1673C40.6042 25.0729 38.85 20.8761 38.85 16.5C38.85 12.1239 40.6042 7.92709 43.7267 4.83274C46.8492 1.73839 51.0841 0 55.5 0ZM91.575 5.5C95.2549 5.5 98.784 6.94866 101.386 9.52728C103.988 12.1059 105.45 15.6033 105.45 19.25C105.45 22.8967 103.988 26.3941 101.386 28.9727C98.784 31.5513 95.2549 33 91.575 33C87.8951 33 84.366 31.5513 81.7639 28.9727C79.1618 26.3941 77.7 22.8967 77.7 19.25C77.7 15.6033 79.1618 12.1059 81.7639 9.52728C84.366 6.94866 87.8951 5.5 91.575 5.5ZM19.425 5.5C23.1049 5.5 26.634 6.94866 29.2361 9.52728C31.8382 12.1059 33.3 15.6033 33.3 19.25C33.3 22.8967 31.8382 26.3941 29.2361 28.9727C26.634 31.5513 23.1049 33 19.425 33C15.7451 33 12.216 31.5513 9.61389 28.9727C7.01183 26.3941 5.55 22.8967 5.55 19.25C5.55 15.6033 7.01183 12.1059 9.61389 9.52728C12.216 6.94866 15.7451 5.5 19.425 5.5ZM55.5 8.25C53.2921 8.25 51.1746 9.11919 49.6133 10.6664C48.0521 12.2135 47.175 14.312 47.175 16.5C47.175 18.688 48.0521 20.7865 49.6133 22.3336C51.1746 23.8808 53.2921 24.75 55.5 24.75C57.7079 24.75 59.8254 23.8808 61.3867 22.3336C62.9479 20.7865 63.825 18.688 63.825 16.5C63.825 14.312 62.9479 12.2135 61.3867 10.6664C59.8254 9.11919 57.7079 8.25 55.5 8.25ZM91.575 13.75C90.1031 13.75 88.6914 14.3295 87.6506 15.3609C86.6097 16.3924 86.025 17.7913 86.025 19.25C86.025 20.7087 86.6097 22.1076 87.6506 23.1391C88.6914 24.1705 90.1031 24.75 91.575 24.75C93.047 24.75 94.4586 24.1705 95.4995 23.1391C96.5403 22.1076 97.125 20.7087 97.125 19.25C97.125 17.7913 96.5403 16.3924 95.4995 15.3609C94.4586 14.3295 93.047 13.75 91.575 13.75ZM19.425 13.75C17.9531 13.75 16.5414 14.3295 15.5006 15.3609C14.4597 16.3924 13.875 17.7913 13.875 19.25C13.875 20.7087 14.4597 22.1076 15.5006 23.1391C16.5414 24.1705 17.9531 24.75 19.425 24.75C20.897 24.75 22.3086 24.1705 23.3494 23.1391C24.3903 22.1076 24.975 20.7087 24.975 19.25C24.975 17.7913 24.3903 16.3924 23.3494 15.3609C22.3086 14.3295 20.897 13.75 19.425 13.75Z" fill="black" stroke="black" stroke-width="2" mask="url(#path-1-inside-1_774_786)"/>
</svg>
