<svg width="43" height="43" viewBox="0 0 43 43" fill="none" xmlns="http://www.w3.org/2000/svg">
<g clip-path="url(#clip0_1154_3361)">
<path d="M17.9167 40.7246C17.2228 40.4392 16.6082 39.9905 16.125 39.4167H5.375C4.89982 39.4167 4.4441 39.2279 4.1081 38.8919C3.7721 38.5559 3.58333 38.1002 3.58333 37.625V9.40625C3.58333 9.28745 3.63052 9.17353 3.71453 9.08952C3.79853 9.00552 3.91246 8.95833 4.03125 8.95833H38.9687C39.0875 8.95833 39.2015 9.00552 39.2855 9.08952C39.3695 9.17353 39.4167 9.28745 39.4167 9.40625V18.6692L43 20.1921V5.375C43 3.94946 42.4337 2.58231 41.4257 1.5743C40.4177 0.566293 39.0505 0 37.625 0L5.375 0C3.94946 0 2.58231 0.566293 1.5743 1.5743C0.566293 2.58231 0 3.94946 0 5.375L0 37.625C0 39.0505 0.566293 40.4177 1.5743 41.4257C2.58231 42.4337 3.94946 43 5.375 43H23.2917L17.9167 40.7246ZM18.8125 2.6875C19.2877 2.6875 19.7434 2.87626 20.0794 3.21227C20.4154 3.54827 20.6042 4.00399 20.6042 4.47917C20.6042 4.95435 20.4154 5.41006 20.0794 5.74607C19.7434 6.08207 19.2877 6.27083 18.8125 6.27083C18.3373 6.27083 17.8816 6.08207 17.5456 5.74607C17.2096 5.41006 17.0208 4.95435 17.0208 4.47917C17.0208 4.00399 17.2096 3.54827 17.5456 3.21227C17.8816 2.87626 18.3373 2.6875 18.8125 2.6875ZM12.5417 2.6875C13.0168 2.6875 13.4726 2.87626 13.8086 3.21227C14.1446 3.54827 14.3333 4.00399 14.3333 4.47917C14.3333 4.95435 14.1446 5.41006 13.8086 5.74607C13.4726 6.08207 13.0168 6.27083 12.5417 6.27083C12.0665 6.27083 11.6108 6.08207 11.2748 5.74607C10.9388 5.41006 10.75 4.95435 10.75 4.47917C10.75 4.00399 10.9388 3.54827 11.2748 3.21227C11.6108 2.87626 12.0665 2.6875 12.5417 2.6875ZM6.27083 2.6875C6.74601 2.6875 7.20173 2.87626 7.53773 3.21227C7.87374 3.54827 8.0625 4.00399 8.0625 4.47917C8.0625 4.95435 7.87374 5.41006 7.53773 5.74607C7.20173 6.08207 6.74601 6.27083 6.27083 6.27083C5.79565 6.27083 5.33994 6.08207 5.00393 5.74607C4.66793 5.41006 4.47917 4.95435 4.47917 4.47917C4.47917 4.00399 4.66793 3.54827 5.00393 3.21227C5.33994 2.87626 5.79565 2.6875 6.27083 2.6875Z" fill="black"/>
<path d="M43.0001 24.3128C42.9998 23.9611 42.896 23.6172 42.7017 23.3241C42.5073 23.031 42.231 22.8016 41.9072 22.6644L31.1572 18.0598C30.9361 17.9662 30.6985 17.918 30.4584 17.918C30.2183 17.918 29.9807 17.9662 29.7597 18.0598L19.0097 22.6644C18.6858 22.8016 18.4095 23.031 18.2152 23.3241C18.0208 23.6172 17.917 23.9611 17.9167 24.3128V36.6036C17.917 36.9553 18.0208 37.2991 18.2152 37.5922C18.4095 37.8853 18.6858 38.1148 19.0097 38.2519L29.7597 42.8565C29.9807 42.9501 30.2183 42.9984 30.4584 42.9984C30.6985 42.9984 30.9361 42.9501 31.1572 42.8565L41.9072 38.2519C42.231 38.1148 42.5073 37.8853 42.7017 37.5922C42.896 37.2991 42.9998 36.9553 43.0001 36.6036V24.3128ZM30.4584 21.6611L36.6576 24.3128L30.4584 26.9823L24.2592 24.3128L30.4584 21.6611ZM21.5001 27.0361L28.6667 30.0998V38.4848L21.5001 35.4211V27.0361ZM32.2501 38.4848V30.0998L39.4167 27.0361V35.4211L32.2501 38.4848Z" fill="black"/>
</g>
<defs>
<clipPath id="clip0_1154_3361">
<rect width="43" height="43" fill="white"/>
</clipPath>
</defs>
</svg>
