<svg width="72" height="72" viewBox="0 0 72 72" fill="none" xmlns="http://www.w3.org/2000/svg">
<path d="M67.3458 27.9345C66.1382 26.6725 64.889 25.372 64.4181 24.2285C63.9825 23.1811 63.9569 21.445 63.9312 19.7634C63.8832 16.6371 63.832 13.0945 61.3687 10.6312C58.9055 8.16805 55.3629 8.1168 52.2366 8.06875C50.555 8.04312 48.8189 8.0175 47.7715 7.58187C46.6312 7.11102 45.3275 5.8618 44.0655 4.65422C41.8553 2.53055 39.3441 0.125 36 0.125C32.6559 0.125 30.1479 2.53055 27.9345 4.65422C26.6725 5.8618 25.372 7.11102 24.2285 7.58187C23.1875 8.0175 21.445 8.04312 19.7634 8.06875C16.6371 8.1168 13.0945 8.16805 10.6312 10.6312C8.16805 13.0945 8.13281 16.6371 8.06875 19.7634C8.04312 21.445 8.0175 23.1811 7.58187 24.2285C7.11102 25.3688 5.8618 26.6725 4.65422 27.9345C2.53055 30.1447 0.125 32.6559 0.125 36C0.125 39.3441 2.53055 41.8521 4.65422 44.0655C5.8618 45.3275 7.11102 46.628 7.58187 47.7715C8.0175 48.8189 8.04312 50.555 8.06875 52.2366C8.1168 55.3629 8.16805 58.9055 10.6312 61.3687C13.0945 63.832 16.6371 63.8832 19.7634 63.9312C21.445 63.9569 23.1811 63.9825 24.2285 64.4181C25.3688 64.889 26.6725 66.1382 27.9345 67.3458C30.1447 69.4695 32.6559 71.875 36 71.875C39.3441 71.875 41.8521 69.4695 44.0655 67.3458C45.3275 66.1382 46.628 64.889 47.7715 64.4181C48.8189 63.9825 50.555 63.9569 52.2366 63.9312C55.3629 63.8832 58.9055 63.832 61.3687 61.3687C63.832 58.9055 63.8832 55.3629 63.9312 52.2366C63.9569 50.555 63.9825 48.8189 64.4181 47.7715C64.889 46.6312 66.1382 45.3275 67.3458 44.0655C69.4695 41.8553 71.875 39.3441 71.875 36C71.875 32.6559 69.4695 30.1479 67.3458 27.9345ZM50.6255 30.1255L32.688 48.063C32.45 48.3012 32.1674 48.4902 31.8563 48.6192C31.5452 48.7481 31.2118 48.8145 30.875 48.8145C30.5382 48.8145 30.2048 48.7481 29.8937 48.6192C29.5826 48.4902 29.3 48.3012 29.062 48.063L21.3745 40.3755C21.1364 40.1374 20.9476 39.8547 20.8187 39.5437C20.6899 39.2326 20.6236 38.8992 20.6236 38.5625C20.6236 38.2258 20.6899 37.8924 20.8187 37.5813C20.9476 37.2703 21.1364 36.9876 21.3745 36.7495C21.8554 36.2687 22.5075 35.9986 23.1875 35.9986C23.5242 35.9986 23.8576 36.0649 24.1687 36.1937C24.4797 36.3226 24.7624 36.5114 25.0005 36.7495L30.875 42.6273L46.9995 26.4995C47.2376 26.2614 47.5203 26.0726 47.8313 25.9437C48.1424 25.8149 48.4758 25.7486 48.8125 25.7486C49.1492 25.7486 49.4826 25.8149 49.7937 25.9437C50.1047 26.0726 50.3874 26.2614 50.6255 26.4995C50.8636 26.7376 51.0524 27.0203 51.1813 27.3313C51.3101 27.6424 51.3764 27.9758 51.3764 28.3125C51.3764 28.6492 51.3101 28.9826 51.1813 29.2937C51.0524 29.6047 50.8636 29.8874 50.6255 30.1255Z" fill="#155724"/>
</svg>
