<svg width="62" height="54" viewBox="0 0 62 54" fill="none" xmlns="http://www.w3.org/2000/svg">
<path fill-rule="evenodd" clip-rule="evenodd" d="M9.57969 2.63683C6.80303 4.9435 6.06969 8.8435 4.60636 16.6468L2.10636 29.9802C0.0496929 40.9535 -0.976974 46.4402 2.01969 50.0535C5.01969 53.6668 10.5997 53.6668 21.7664 53.6668H40.233C51.3997 53.6668 56.9797 53.6668 59.9797 50.0535C62.9797 46.4402 61.9464 40.9535 59.893 29.9802L57.393 16.6468C55.9264 8.84683 55.1964 4.9435 52.4197 2.63683C49.643 0.333496 45.673 0.333496 37.733 0.333496H24.2664C16.3264 0.333496 12.3564 0.333496 9.57969 2.63683ZM23.9264 12.8368C24.4433 14.3003 25.4012 15.5674 26.6683 16.4637C27.9354 17.36 29.4493 17.8413 31.0014 17.8413C32.5534 17.8413 34.0673 17.36 35.3344 16.4637C36.6015 15.5674 37.5595 14.3003 38.0764 12.8368C38.3095 12.2285 38.7709 11.7352 39.3623 11.4619C39.9537 11.1887 40.6284 11.1571 41.2428 11.3739C41.8571 11.5907 42.3626 12.0388 42.6515 12.6227C42.9404 13.2066 42.99 13.8802 42.7897 14.5002C41.9279 16.938 40.3314 19.0486 38.2203 20.5415C36.1091 22.0343 33.587 22.8359 31.0014 22.8359C28.4157 22.8359 25.8936 22.0343 23.7825 20.5415C21.6713 19.0486 20.0749 16.938 19.213 14.5002C19.0973 14.1892 19.0447 13.8584 19.0581 13.5269C19.0715 13.1954 19.1508 12.87 19.2913 12.5694C19.4318 12.2689 19.6307 11.9993 19.8765 11.7765C20.1222 11.5536 20.4098 11.3818 20.7226 11.2712C21.0354 11.1606 21.367 11.1134 21.6982 11.1323C22.0295 11.1511 22.3536 11.2357 22.6518 11.3811C22.95 11.5265 23.2162 11.7298 23.4351 11.9792C23.6539 12.2285 23.8209 12.5223 23.9264 12.8368Z" fill="white"/>
</svg>
