<svg width="21" height="22" viewBox="0 0 21 22" fill="none" xmlns="http://www.w3.org/2000/svg">
<path d="M10 2.49817H3C2.46957 2.49817 1.96086 2.70888 1.58579 3.08396C1.21071 3.45903 1 3.96774 1 4.49817V18.4982C1 19.0286 1.21071 19.5373 1.58579 19.9124C1.96086 20.2875 2.46957 20.4982 3 20.4982H17C17.5304 20.4982 18.0391 20.2875 18.4142 19.9124C18.7893 19.5373 19 19.0286 19 18.4982V11.4982" stroke="white" stroke-width="2" stroke-linecap="round" stroke-linejoin="round"/>
<path d="M16.3751 2.12315C16.7729 1.72533 17.3125 1.50183 17.8751 1.50183C18.4377 1.50183 18.9773 1.72533 19.3751 2.12315C19.7729 2.52098 19.9964 3.06054 19.9964 3.62315C19.9964 4.18576 19.7729 4.72533 19.3751 5.12315L10.3621 14.1372C10.1246 14.3744 9.8313 14.5481 9.50909 14.6422L6.63609 15.4822C6.55005 15.5072 6.45883 15.5088 6.372 15.4865C6.28517 15.4643 6.20592 15.4191 6.14254 15.3557C6.07916 15.2923 6.03398 15.2131 6.01174 15.1262C5.98949 15.0394 5.991 14.9482 6.01609 14.8622L6.85609 11.9892C6.95062 11.6672 7.12463 11.3742 7.36209 11.1372L16.3751 2.12315Z" stroke="white" stroke-width="2" stroke-linecap="round" stroke-linejoin="round"/>
</svg>
