<svg width="20" height="16" viewBox="0 0 20 16" fill="none" xmlns="http://www.w3.org/2000/svg">
<path d="M12.807 10.751C12.674 10.8988 12.4877 10.9878 12.2891 10.9983C12.0905 11.0088 11.8959 10.94 11.748 10.807L9.248 8.557C9.17001 8.48668 9.10766 8.40076 9.06498 8.30481C9.0223 8.20886 9.00025 8.10501 9.00025 8C9.00025 7.89499 9.0223 7.79114 9.06498 7.69519C9.10766 7.59924 9.17001 7.51332 9.248 7.443L11.748 5.193C11.8959 5.05986 12.0905 4.99091 12.2892 5.00132C12.4879 5.01173 12.6744 5.10064 12.8075 5.2485C12.9406 5.39636 13.0096 5.59105 12.9992 5.78974C12.9888 5.98844 12.8999 6.17486 12.752 6.308L11.704 7.25L15.25 7.25C15.3485 7.25 15.446 7.2694 15.537 7.30709C15.628 7.34478 15.7107 7.40003 15.7803 7.46967C15.85 7.53931 15.9052 7.62199 15.9429 7.71299C15.9806 7.80398 16 7.90151 16 8C16 8.09849 15.9806 8.19602 15.9429 8.28701C15.9052 8.37801 15.85 8.46069 15.7803 8.53033C15.7107 8.59997 15.628 8.65522 15.537 8.69291C15.446 8.7306 15.3485 8.75 15.25 8.75H11.704L12.752 9.692C12.8253 9.75795 12.8848 9.8377 12.9273 9.92668C12.9697 10.0157 12.9941 10.1121 12.9993 10.2106C13.0044 10.309 12.99 10.4075 12.957 10.5004C12.924 10.5933 12.8731 10.6778 12.807 10.751ZM0 2.75C0 2.38886 0.0711308 2.03127 0.209332 1.69762C0.347532 1.36397 0.550095 1.06082 0.805456 0.805456C1.06082 0.550095 1.36398 0.347532 1.69762 0.209332C2.03127 0.0711308 2.38886 0 2.75 0L17.25 0C17.6111 0 17.9687 0.0711308 18.3024 0.209332C18.636 0.347532 18.9392 0.550095 19.1945 0.805456C19.4499 1.06082 19.6525 1.36397 19.7907 1.69762C19.9289 2.03127 20 2.38886 20 2.75V13.25C20 13.9793 19.7103 14.6788 19.1945 15.1945C18.6788 15.7103 17.9793 16 17.25 16L2.75 16C2.02065 16 1.32118 15.7103 0.805456 15.1945C0.289732 14.6788 0 13.9793 0 13.25V2.75ZM2.75 1.5C2.06 1.5 1.5 2.06 1.5 2.75V13.251C1.5 13.941 2.06 14.501 2.75 14.501H6.004L6.004 1.5H2.75ZM7.504 1.5L7.504 14.5L17.25 14.5C17.94 14.5 18.5 13.94 18.5 13.25V2.75C18.5 2.06 17.94 1.5 17.25 1.5L7.504 1.5Z" fill="white"/>
</svg>
