<svg width="22" height="20" viewBox="0 0 22 20" fill="none" xmlns="http://www.w3.org/2000/svg">
<path d="M21 7.49979H16.21L11.83 0.939788C11.7382 0.803578 11.6141 0.69217 11.4688 0.615468C11.3236 0.538767 11.1616 0.499151 10.9973 0.50014C10.833 0.50113 10.6716 0.542695 10.5272 0.621141C10.3829 0.699587 10.2602 0.812481 10.17 0.949788L5.79 7.49979H1C0.45 7.49979 0 7.94979 0 8.49979C0 8.58979 -3.72529e-08 8.67979 0.04 8.76979L2.58 18.0398C2.81 18.8798 3.58 19.4998 4.5 19.4998H17.5C18.42 19.4998 19.19 18.8798 19.43 18.0398L21.97 8.76979L22 8.49979C22 7.94979 21.55 7.49979 21 7.49979ZM11 3.29979L13.8 7.49979H8.2L11 3.29979ZM17.5 17.4998H4.5L2.31 9.49979H19.7L17.5 17.4998ZM11 11.4998C9.9 11.4998 9 12.3998 9 13.4998C9 14.5998 9.9 15.4998 11 15.4998C12.1 15.4998 13 14.5998 13 13.4998C13 12.3998 12.1 11.4998 11 11.4998Z" fill="white"/>
</svg>
